<svg xmlns="http://www.w3.org/2000/svg" version="1.1" xmlns:xlink="http://www.w3.org/1999/xlink" width="200" height="200"><svg xmlns="http://www.w3.org/2000/svg" version="1.1" xmlns:xlink="http://www.w3.org/1999/xlink" viewBox="0 0 200 200"><rect width="200" height="200" fill="url('#gradient')"></rect><defs><linearGradient id="SvgjsLinearGradient1001" gradientTransform="rotate(110 0.5 0.5)"><stop offset="0%" stop-color="#000000"></stop><stop offset="100%" stop-color="#757575"></stop></linearGradient></defs><g><g fill="#ffffff" transform="matrix(2.419878366637706,0,0,2.419878366637706,29.40024454133807,117.2047103763683)" stroke="#c8512e" stroke-width="0"><path d="M12.96-14.22L12.96 0L9.55 0L9.55-5.94L4.50-5.94L4.50 0L1.07 0L1.07-14.22L4.50-14.22L4.50-8.57L9.55-8.57L9.55-14.22L12.96-14.22ZM18.78-14.22L18.78 0L15.36 0L15.36-14.22L18.78-14.22ZM28.96 0L26.45-5.02L24.59-5.02L24.59 0L21.16 0L21.16-14.22L26.76-14.22Q29.29-14.22 30.71-13.10Q32.14-11.97 32.14-9.92L32.14-9.92Q32.14-8.44 31.54-7.46Q30.94-6.48 29.66-5.88L29.66-5.88L32.63-0.15L32.63 0L28.96 0ZM24.59-11.57L24.59-7.67L26.76-7.67Q27.73-7.67 28.23-8.18Q28.72-8.69 28.72-9.61Q28.72-10.53 28.22-11.05Q27.72-11.57 26.76-11.57L26.76-11.57L24.59-11.57ZM43.03-8.57L43.03-6.03L37.64-6.03L37.64-2.64L44.00-2.64L44.00 0L34.21 0L34.21-14.22L44.02-14.22L44.02-11.57L37.64-11.57L37.64-8.57L43.03-8.57ZM57.28-14.22L57.28 0L53.87 0L48.83-8.85L48.83 0L45.40 0L45.40-14.22L48.83-14.22L53.86-5.37L53.86-14.22L57.28-14.22Z"></path></g></g></svg><style>@media (prefers-color-scheme: light) { :root { filter: none; } }
@media (prefers-color-scheme: dark) { :root { filter: none; } }
</style></svg>